<svg id="Layer_1" data-name="Layer 1" xmlns="http://www.w3.org/2000/svg" xmlns:xlink="http://www.w3.org/1999/xlink" viewBox="0 0 1008.36 267.33"><defs><style>.cls-1{fill:none;}.cls-2{clip-path:url(#clip-path);}.cls-3{fill:#9a8490;}</style><clipPath id="clip-path"><rect class="cls-1" x="-218.98" y="-556.03" width="1421.11" height="1417.96"/></clipPath></defs><g class="cls-2"><path class="cls-3" d="M191.41,182.6c-.91-.13-4.76,8.36-4.76,9s13,5.2,13,5.2c1.28.69,5.3-7.39,5.49-8.35s-12.81-5.75-13.73-5.89"/><path class="cls-3" d="M96.89,186.16c-.91-.14-4.76,8.35-4.76,9s13,5.21,13,5.21c1.28.68,5.3-7.4,5.49-8.35s-12.81-5.76-13.73-5.89"/><path class="cls-3" d="M873.74,98.21c-.36,1-11-3.42-12.44-4.1s-5.86,8.21-5.86,8.21c-.54,1.1,11,5.07,12.63,5.21s4-6,4.57-7.13,12.81,4.11,14.09,4.25,5.31-7.26,5.86-8.35-12.81-4.8-13.91-5.07-4.57,6-4.94,7"/><path class="cls-3" d="M643.12,181.17s-46.8,13.35-48.31,14.07-4.53,5.54-3.15,5.13,49.4-14.48,50.23-15.09,2.19-4.42,1.23-4.11"/><path class="cls-3" d="M492.23,186.16s-28.68,10.06-29.64,10.78-2.74,4.32-1.92,4.11,28.68-10.17,29.51-10.58,2.6-4.41,2.05-4.31"/><path class="cls-3" d="M158.71,186.16S130,196.22,129.07,196.94s-2.75,4.32-1.92,4.11,28.68-10.17,29.5-10.58,2.61-4.41,2.06-4.31"/><path class="cls-3" d="M303.49,69.37c.82-.2,28.68-10.17,29.5-10.58s2.61-4.41,2.06-4.31c0,0-28.68,10.07-29.64,10.78s-2.75,4.32-1.92,4.11"/><path class="cls-3" d="M936.12,61.49c-1.64-1.13,2.47-3.19,4.12-3.19,1.48,0,4.27,1.67,2.74,6.4a71.47,71.47,0,0,1-6.86-3.21M915.4,86c-2.47,1.34-10.84,6-11.67,7.09s12.91-4.93,18-8c4.65-2.82,15.49-9.51,20.56-15.59l4,1.83c1-.93,2.19-3.7,1.37-4.42a19.42,19.42,0,0,0-2.77-1.38c2.83-5.43,2.42-9.78-.11-11-2.88-1.43-11,2.47-12.22,6s1.1,5.13,4.26,6.57l3.57,1.63c-6.18,6-22.81,16.2-25,17.37"/><path class="cls-3" d="M749.21,62.86c-1.65-1.13,2.47-3.19,4.11-3.19,1.49,0,4.28,1.67,2.74,6.4a72.2,72.2,0,0,1-6.85-3.21M734.8,86.48c4.65-2.82,15.49-9.52,20.56-15.59l4,1.83c1-.93,2.2-3.7,1.38-4.42A19.42,19.42,0,0,0,758,66.92c2.83-5.43,2.42-9.79-.11-11.05-2.89-1.43-11,2.47-12.22,6s1.1,5.13,4.25,6.57L753.47,70c-6.18,6-22.82,16.2-25,17.37-2.47,1.34-10.85,6-11.67,7.09s12.9-4.93,18-8"/><path class="cls-3" d="M839.45,120.52c3.84,0,5.21-4.52,5.76-7.29s-4.94-11.3-4.94-11.3a4.63,4.63,0,0,0-1.64,3.29c-.28,2.36,4.66,8.52,4.25,10.27s-5.35.92-6.59-.21-1.51-2.26-1.78-5.85a16.79,16.79,0,0,0-2.61-7.5c-.41-.41-2,4-2,4a22.89,22.89,0,0,1,2,7.8s-2.88,3.6-6.59,3.6-4.11-4.11-3.7-6,1.23-6.37.14-7.29-2.88,1.23-3.71,2-1.1,3.19-1.1,3.19c2.2-1.34,2.88-1.44,2.2,4.31s3.57,8.32,6.17,8.32,5.49-3.49,6-4.32a5.53,5.53,0,0,1,1.65-1.43c.69,2.56,2.61,4.31,6.45,4.31"/><path class="cls-3" d="M825.62,139.12c-.41,1.33-5.21,11.7-5.21,16-.83,4.82,7.13,12.42,13-3.6a5.44,5.44,0,0,0-1.79,1.44c-.69.92-2.06,4-5.9,3.29-3.61-.68-2.61-9.14,2.61-20.75,0,0-2.34,2.26-2.75,3.6"/><path class="cls-3" d="M789.35,108.61c-.4,1.33-5.21,11.71-5.21,16-.82,4.83,7.14,12.43,13-3.59a5.25,5.25,0,0,0-1.78,1.43c-.69.93-2.06,4-5.91,3.29-3.6-.67-2.6-9.14,2.61-20.75,0,0-2.33,2.26-2.75,3.6"/><path class="cls-3" d="M599.77,102.67c-.41,1.34-5.22,11.71-5.22,16-.82,4.83,7.14,12.43,13-3.59a5.2,5.2,0,0,0-1.78,1.44c-.69.92-2.06,4-5.9,3.28-3.61-.67-2.61-9.14,2.6-20.74,0,0-2.33,2.26-2.74,3.59"/><path class="cls-3" d="M544.75,133.89a5.3,5.3,0,0,0-1.78,1.44c-.68.92-2.06,4-5.9,3.28-3.61-.67-2.61-9.14,2.6-20.74,0,0-2.33,2.26-2.74,3.59s-5.21,11.71-5.21,16c-.83,4.83,7.14,12.43,13-3.59"/><path class="cls-3" d="M487.16,71.76a5.34,5.34,0,0,0-1.79,1.43c-.68.93-2.05,4-5.9,3.29-3.61-.67-2.61-9.14,2.61-20.74,0,0-2.34,2.26-2.75,3.59s-5.21,11.71-5.21,16c-.83,4.83,7.14,12.43,13-3.59"/><path class="cls-3" d="M461.13,146.74a5.3,5.3,0,0,0-1.78,1.44c-.68.92-2.06,4-5.9,3.29-3.61-.68-2.61-9.15,2.6-20.75,0,0-2.33,2.26-2.74,3.59s-5.22,11.71-5.22,16c-.82,4.82,7.14,12.42,13-3.6"/><path class="cls-3" d="M210.41,101.83c-.41,1.33-5.21,11.71-5.21,16-.83,4.83,7.13,12.43,13-3.59a5.34,5.34,0,0,0-1.79,1.43c-.68.93-2.06,4-5.9,3.29-3.61-.68-2.61-9.14,2.61-20.75,0,0-2.34,2.26-2.75,3.6"/><path class="cls-3" d="M179.28,85.39a5.2,5.2,0,0,0-1.78,1.44c-.69.92-2.06,4-5.91,3.28C168,89.44,169,81,174.2,69.37c0,0-2.33,2.26-2.75,3.59s-5.21,11.71-5.21,16c-.82,4.83,7.14,12.43,13-3.59"/><path class="cls-3" d="M137.75,110.23c-.41,1.34-5.22,11.71-5.22,16-.82,4.83,7.14,12.43,13-3.59a5.35,5.35,0,0,0-1.78,1.43c-.69.93-2.06,4-5.9,3.29-3.61-.67-2.61-9.14,2.6-20.75,0,0-2.33,2.26-2.74,3.6"/><path class="cls-3" d="M98.68,93.15a5.3,5.3,0,0,0-1.78,1.44c-.68.92-2.06,4-5.9,3.29-3.61-.68-2.61-9.15,2.6-20.75,0,0-2.33,2.26-2.74,3.59s-5.22,11.71-5.22,16c-.82,4.82,7.14,12.42,13-3.6"/><path class="cls-3" d="M356.81,190.76c-.68.92-2.05,4-5.9,3.29-3.61-.68-2.61-9.14,2.61-20.75,0,0-2.34,2.26-2.75,3.6s-5.21,11.7-5.21,16c-.83,4.82,7.14,12.42,13-3.6a5.44,5.44,0,0,0-1.79,1.44"/><path class="cls-3" d="M561,182.42a5.29,5.29,0,0,0,1.79-1.44c.68-.92,2-4,5.9-3.28,3.61.67,2.61,9.14-2.61,20.74,0,0,2.34-2.26,2.75-3.59s5.21-11.71,5.21-16c.83-4.83-7.14-12.43-13,3.59"/><path class="cls-3" d="M590.4,69.28c.69.1,2.33-1,2.33-1,8,5.54,6.46,13.87,8.1,14,.93.06,2.7-3.41,3.85-6.68a50.75,50.75,0,0,0,1.64-6.67c1-4.42,2.06-7.29,5.08-7.29s4.8,3.08,4.8,3.08c4.31-4.2.6-7.91-3.29-8.12-1.82-.09-3.8,1.36-4.8,2.47-3.16,3.49-5.9,16.43-5.9,16.43-2.88-10.89-11.81-15.3-14.83-15.3S584,64.55,584,65.38s5.77,3.79,6.45,3.9"/><path class="cls-3" d="M475.58,116.49c.69.11,2.33-1,2.33-1,8,5.55,6.46,13.87,8.1,14,.93.06,2.7-3.4,3.84-6.67a49.49,49.49,0,0,0,1.65-6.68c1-4.42,2.06-7.29,5.08-7.29s4.8,3.08,4.8,3.08c4.31-4.2.6-7.91-3.29-8.11-1.82-.1-3.8,1.35-4.8,2.46-3.16,3.49-5.9,16.43-5.9,16.43-2.89-10.89-11.81-15.3-14.83-15.3s-3.43,4.41-3.43,5.24,5.77,3.79,6.45,3.9"/><path class="cls-3" d="M202.35,67.12c.68.1,2.33-1,2.33-1,8,5.54,6.45,13.87,8.1,14,.92.06,2.69-3.41,3.84-6.67a53.13,53.13,0,0,0,1.65-6.68c1-4.42,2.06-7.29,5.07-7.29s4.81,3.08,4.81,3.08c4.3-4.2.6-7.91-3.3-8.11-1.81-.1-3.79,1.35-4.8,2.46-3.15,3.49-5.9,16.43-5.9,16.43C211.27,62.39,202.35,58,199.33,58s-3.43,4.41-3.43,5.24,5.76,3.79,6.45,3.9"/><path class="cls-3" d="M121.84,67.12c.68.1,2.33-1,2.33-1,8,5.54,6.45,13.87,8.1,14,.92.06,2.69-3.41,3.84-6.67a53.13,53.13,0,0,0,1.65-6.68c1-4.42,2.05-7.29,5.07-7.29s4.81,3.08,4.81,3.08c4.3-4.2.59-7.91-3.3-8.11-1.82-.1-3.79,1.35-4.8,2.46-3.16,3.49-5.9,16.43-5.9,16.43C130.76,62.39,121.84,58,118.82,58s-3.43,4.41-3.43,5.24,5.76,3.79,6.45,3.9"/><path class="cls-3" d="M75,138.27c.68.1,2.33-1,2.33-1,8,5.54,6.45,13.86,8.1,14,.92,0,2.7-3.41,3.84-6.68a52.61,52.61,0,0,0,1.65-6.67c1-4.42,2.06-7.3,5.07-7.3s4.81,3.08,4.81,3.08c4.3-4.2.6-7.91-3.3-8.11-1.81-.09-3.79,1.35-4.8,2.47-3.15,3.49-5.9,16.43-5.9,16.43-2.88-10.89-11.8-15.3-14.82-15.3s-3.43,4.41-3.43,5.23,5.76,3.8,6.45,3.91"/><path class="cls-3" d="M308.58,103.13c.68.11,2.33-1,2.33-1,8,5.54,6.45,13.86,8.1,14,.92.06,2.69-3.4,3.84-6.67a52.71,52.71,0,0,0,1.65-6.68c.95-4.41,2.05-7.29,5.07-7.29s4.81,3.08,4.81,3.08c4.3-4.2.59-7.91-3.3-8.11-1.82-.1-3.79,1.35-4.8,2.46-3.16,3.49-5.9,16.43-5.9,16.43C317.5,98.4,308.58,94,305.56,94s-3.43,4.41-3.43,5.24,5.76,3.8,6.45,3.9"/><path class="cls-3" d="M927.86,107.06c-3.16,3.26-5.91,15.33-5.91,15.33-2.88-10.15-11.8-14.27-14.82-14.27s-3.43,4.12-3.43,4.88,5.76,3.55,6.45,3.64,2.33-1,2.33-1c8,5.16,6.46,12.92,8.1,13,.93.06,2.7-3.17,3.85-6.22a45.22,45.22,0,0,0,1.64-6.23c1-4.12,2.06-6.8,5.08-6.8s4.8,2.87,4.8,2.87c4.3-3.91.6-7.38-3.29-7.56-1.82-.09-3.8,1.26-4.8,2.29"/><path class="cls-3" d="M420.31,67.13c.68.09,2.33-1,2.33-1,8,5.17,6.45,12.93,8.1,13,.93,0,2.7-3.18,3.84-6.23a43.32,43.32,0,0,0,1.65-6.23c1-4.11,2.06-6.8,5.08-6.8s4.8,2.88,4.8,2.88c4.3-3.92.6-7.38-3.29-7.57-1.82-.09-3.8,1.26-4.8,2.3-3.17,3.26-5.91,15.32-5.91,15.32-2.88-10.15-11.8-14.27-14.82-14.27s-3.43,4.12-3.43,4.89,5.76,3.54,6.45,3.64"/><path class="cls-3" d="M439.92,90.12c1-.2,2.6-2.87,2.74-4.1s-7.82-6-11.25-6-5.22,6.67-5.22,6.67c1.1.11,1.65-1.74,3.43-2s5.08,1.74,5.08,1.74a27.34,27.34,0,0,0-6.59,1.34c-3.16,1.13-5.21,6.47-5.21,8S426.47,108.61,428,114s1,15.2,1,15.2c1.23-1.64,2.33-3.49,1.64-11.3S425,96.39,425.23,94.13s13.72-3.8,14.69-4"/><path class="cls-3" d="M36.84,66.17c8,5.17,6.46,12.93,8.1,13,.92,0,2.7-3.18,3.84-6.23a43.32,43.32,0,0,0,1.65-6.23c1-4.11,2.06-6.8,5.08-6.8s4.8,2.88,4.8,2.88c4.3-3.92.6-7.38-3.29-7.57-1.82-.09-3.8,1.26-4.81,2.3-3.15,3.26-5.9,15.32-5.9,15.32C43.43,62.72,34.5,58.6,31.49,58.6s-3.43,4.12-3.43,4.89S33.82,67,34.5,67.13s2.34-1,2.34-1"/><path class="cls-3" d="M54.12,90.12c1-.2,2.6-2.87,2.74-4.1s-7.82-6-11.25-6-5.22,6.67-5.22,6.67c1.1.11,1.65-1.74,3.43-2s5.08,1.74,5.08,1.74a27.34,27.34,0,0,0-6.59,1.34c-3.16,1.13-5.21,6.47-5.21,8s3.57,12.84,5.07,18.18,1,15.2,1,15.2c1.23-1.64,2.33-3.49,1.64-11.3s-5.63-21.46-5.35-23.72,13.72-3.8,14.69-4"/><path class="cls-3" d="M226.81,193.66c-4.26-2.06,0-6,2.33-7.6s7.55-5.44,9.06-7.29,3-4,.69-5.45-10-1.74-12.5-1S221,178,221,178a8.78,8.78,0,0,1,5.08-1.65c3,0,8.78,1.34,9.06,1.95s-3.84,2.88-5.63,4.21-11.8,9.66-7.69,13.87,11.54,2.87,16.34,2,13.45-5.75,13.45-5.75c-10.16,3-20.59,3.08-24.84,1"/><path class="cls-3" d="M924.22,179.53c-1,.2-3.57-.21-7.13-2.36,0,0,2.47-2.78,4.39-1.55s3.71,3.7,2.74,3.91m-.82-8c-4-.72-7.82,4.72-7.82,4.72s-1.65-.82-3,1.44c-.94,1.55-.85,3.36-4.26,5.75A54.76,54.76,0,0,1,901,187c-10.84,5-41.17,12.22-41.58,12.64s15.92-1,22.78-2.37,18.8-5.65,23.6-8.32,6.59-7.49,7.14-8.42,1.1,1,3.57,2.06a26.68,26.68,0,0,0,7.68,1.64c.83-.1,2.61-2.77,3.16-3.59s1-8.32-4-9.14"/><path class="cls-3" d="M639.75,94c-1,7.94-6.59,11.5-7.69,18.62s4.49,6.85,4.49,6.85,7.68.2,7.41-10a10.46,10.46,0,0,0-1.56,2,4.89,4.89,0,0,1-4.67,3.21c-3.2,0-4.66-3.49.1-10.13s11.71-18.62-6.22-32.79c0,0-2.38,4.31-2.2,4.58S641,83.9,639.75,94"/><path class="cls-3" d="M727.54,150.44c-1.1,7.12,4.48,6.84,4.48,6.84s7.68.21,7.41-10a10.26,10.26,0,0,0-1.56,2,4.88,4.88,0,0,1-4.66,3.22c-3.2,0-4.67-3.49.09-10.13s11.71-18.63-6.22-32.8c0,0-2.38,4.32-2.2,4.59s11.63,7.54,10.34,17.66c-1,7.94-6.59,11.51-7.68,18.63"/><path class="cls-3" d="M524.33,80.61c-1,7.94-6.59,11.5-7.68,18.62s4.48,6.85,4.48,6.85,7.68.2,7.41-10a10.46,10.46,0,0,0-1.56,2,4.88,4.88,0,0,1-4.66,3.22c-3.21,0-4.67-3.5.09-10.14s11.71-18.62-6.22-32.79c0,0-2.38,4.31-2.2,4.59s11.62,7.54,10.34,17.66"/><path class="cls-3" d="M251.88,104.28c-1,7.94-6.59,11.51-7.68,18.63s4.48,6.84,4.48,6.84,7.69.21,7.41-10a10,10,0,0,0-1.55,2,4.91,4.91,0,0,1-4.67,3.22c-3.2,0-4.66-3.49.09-10.13S261.67,96.2,243.74,82c0,0-2.38,4.31-2.19,4.59s11.62,7.54,10.33,17.66"/><path class="cls-3" d="M802.92,94.77c.81-.15-5.15-4.15,105.11-33,3.47-.91,6.3-5.62,6.3-5.62s-58.93,12.48-107.55,32c-1.94.78-4.68,6.85-3.86,6.7"/><path class="cls-3" d="M756.18,94.77c.81-.15-5.15-4.15,105.11-33,3.48-.91,6.3-5.62,6.3-5.62S808.66,68.58,760,88.07c-1.94.78-4.67,6.85-3.86,6.7"/><path class="cls-3" d="M315.79,149.66c1-1.3,7.44-6,15.36,2.33-9.62.58-16.32-1.13-15.36-2.33M358.36,74.4c.2-1.57,5.18,3.16,5.18,3.16,2.16.72,1.15-2.65.15-5.23s-9.64-16.48-10.22-17.45-4.75,9.8-4.75,9.8c1,1.29,2,2.26,2.16,8s3.87,27.25,4.73,32.09,5.47,34.35,5.33,37.47c-.07,1.42-8.25,6.06-19.51,8.41-1.93-2.94-9-12.73-17.23-12.73-9.69,0-14.64,10.54-14.64,13.28s-.73,11.23,15.92,9.86a78,78,0,0,0,11.65-1.18c2.33,4,1,4.8.61,5.29-.54.68-32.57,25.19-56,25.19-9.47,0-18.05-5.11-19.94-13.55-1.28-5.7,1.06-13.09,5.15-20.47l2.93-3.42c-34.94-1-74.47-13.69-77-14.38s-17.93,1.24-20.13,1.78S166,148.1,166,149.06s22.33,1.23,22.33,1.23c.55-.55,3.11-1.09,4.21-1.09a56.58,56.58,0,0,1,10.43,2.46c4.75,1.51,18.66,4,18.66,4-2.93.41-13.72,3-26.53,6.71a107.62,107.62,0,0,1-21.49,3.95c-5.66.16-11-1.33-12.65-4s-.86-9.57-.86-9.57c-.2-1.4-14.7,7.21-41.09,12.82a196.54,196.54,0,0,1-34.56,4.55c-47,1.34-50.72-14.32-50.91-18s2.79-9.95,3.12-10.64-1.33-.92-1.33-.92c-3.79,4.63-6.28,13.2-6,18s7.36,22.26,49.05,21.07,75.31-16.95,75.31-16.95c1.26-.44,2.33-1,2.1,1.59-.11,5.21,5.16,11.3,13.41,11.3,12.15.23,21.18-3.57,28.5-5.63s26.9-7.53,36.23-8.9,27.71,1,28.16,1.09c-2,4.6-3.86,10.29-3.86,15.26,0,10.28,5.67,22.19,23.6,22.19s37.7-12.74,53.8-25.88c0,0,6-4.25,7.16-15,10.41-2.74,17.8-7.3,20.34-11.14s3.06-7.88,3.45-9.33c1-3.59-1.34-20.24-3.65-34S358.17,76,358.36,74.4"/><path class="cls-3" d="M392.59,101.56c-2.15-14.81-4.39-26.88-3.49-26.63,1.84.5,4.59,5.69,6.06,5.52S384.7,54.32,384,54.82s-5.5,10.39-4.95,11.23c0,0,2,1.17,2.57,5.19s10.09,74.53,11,82.91,3,21.78-.37,27c-3.85,5.86-15.6,15.08-23.67,18.76,0,0,19.45-3,23.85-11.39s8.44-18.42,5.88-41.7c-1.31-11.82-3.48-30-5.69-45.22"/><path class="cls-3" d="M778.53,146.38a16.55,16.55,0,0,0-4.56-6.57c-.6-.4-8.33-8.44-8.33-9.65s5.16,1.61,5,.8-11.31-11.26-12.1-10.72-3.77,8.71-3.18,9.25c0,0,3.38,2.14,4,4.83s9.72,13,12.89,15.68,3.38,5.1,1.39,6.71S738.86,180,650,199.88c0,0,36.89-.67,54.54-5.5s58.71-20.24,70.61-32.58a14.88,14.88,0,0,0,3.37-15.42"/><path class="cls-3" d="M272.73,66.57c.18,1.57,8.66,61.8,11.79,81.22s3.13,29,1.47,33.47c0,0,7.18-5.52,6.26-18.9s-7.38-63.51-10.69-80.83c0,0-1.47-6.17-.74-9.45,0,0,5.16,4.2,5.53,3.81s.18-2-1.11-4.73S275.12,54,274.57,54.49c0,0-5.34,7.88-4.6,8.4s2.57,2.1,2.76,3.68"/><path class="cls-3" d="M688.3,66.29c.17,1.46,8,57.23,10.9,75.22s2.81,26.86,1.1,31c0,0,7.24-5,6.47-17.44s-6.68-58.8-9.8-74.85c0,0-1.4-5.72-.63-8.74,0,0,5.11,3.91,5.48,3.55s.2-1.82-1.05-4.37-9.93-16-10.49-15.5c0,0-5.42,7.25-4.7,7.75s2.55,1.95,2.72,3.41"/><path class="cls-3" d="M617.38,144.71s12.44-1.64,21.22,1.37a121.72,121.72,0,0,0-11.94,4.14c-3.83-2.54-6.95-4.82-9.28-5.51m54.71,11.84c2.74-4.07,3.29-8.32,3.7-9.85,1-3.78-1.44-21.35-3.91-35.89S666,76.54,666.25,74.87s5.55,3.34,5.55,3.34c2.32.75,1.24-2.81.16-5.53s-10.34-17.38-11-18.4-5.09,10.33-5.09,10.33C657,66,658.08,67,658.23,73s5,33.32,5.89,38.43S670,147.69,669.83,151c-.08,1.75-6.2,8-19.88,8a35,35,0,0,1-16.32-4.51,87.56,87.56,0,0,1,17.14-5.1s5.08-7.81,4.26-8.32a103.4,103.4,0,0,0-10.71-3.08c-8.79-2.18-22.73-3.85-47.07,3,0,0-5.49,8.94-4.81,8.63s8.79-3.8,16.47.51c1.88,1.06,4.84,2.68,8.05,4.52-6.66,2.51-14.78,5.2-25,5.2a23.48,23.48,0,0,1-14.42-4.61c-6.79-5.44-6.91-17-9.38-47.34s-9.94-52.42-10.64-53.35-3.75,6.68-4,7.71,4.84,30.23,7.25,56.63,2.2,33.89,1.83,36.25-10.7,6-20.06,5.65C520.67,160.71,513,150,513,150s-1.46.41-1.64,5.75a23.76,23.76,0,0,0-11.53-1.37,87.54,87.54,0,0,0-43.18,19.45c-17,14.51-24.71,19.71-32.58,19.71s-12.26-6.84-7.68-16.84,15-20,15-20a1.16,1.16,0,0,0-1.46,0c-.92.55-11.35,10-15.92,19.86-1.93,4.15-3.05,9.19-1.65,13.28,1.93,5.62,9,9.58,15.56,9.58,11.34,0,21.77-11.22,28.36-17s31.47-24,55.62-17.39c0,0-.54,11.37,18.49,14.79,0,0,3.47-4.24.73-11.5,17.55,2.6,25.46-.65,28.38-2.71,5.3-3.73,7.8-11.94,7.8-11.94,3.91,15.3,21.92,14.54,21.92,14.54,13,0,22.54-4.83,34.39-9.77,7.92,4.73,16.46,9.2,24,9.2,8.72,0,20.42-5.12,24.47-11.15"/><path class="cls-3" d="M939.3,138.57s5.4-4.65,10-2.46c6.17,3,6.94,7.8,6.94,7.8a53.93,53.93,0,0,1-17-5.34m-63.63,3.49c1.59-3.43,8.15-8.64,11.54-8.64,5.17,0,7.56,10.13,5.77,11.62-.71.59-4.67,2.53-10.37,4.66-5.08-2.8-7.69-6-6.94-7.64m76-16.09c-9.64.42-16.58,10.69-16.58,10.69a1.72,1.72,0,0,1-1-.19c-.58-.28-3.18,5.85-6.8,10.22-4.57,5.53-15.1,8.18-19.58,8.18a64,64,0,0,1-17-1.9c4.67-3.68,6.45-8.76,7.43-12.55,1.19-4.61,1.19-9.68-2.59-14.59s-9.94-1.19-17.31,5.21c-6.64,5.78-7.45,16.16-4.92,21.74-2.61,1.47-5.44,1.85-10.86,3.07-20.38,3.93-36.3,15.84-45.62,23.25S797,193.63,788.31,193.63s-24.85-8.14,9.12-46.79a4.75,4.75,0,0,0-2.52.44c-.78.58-21.55,21.65-21.55,35.89s16.5,20.19,29.12,14.67,25.24-22.52,48.73-29.78c4.63-1.44,9.12-2.64,13.4-3.7,6.7-1.52,10.36-3.63,14.43-5.38,5.78,3.21,14.15,5.27,24.88,5.27,6.78,0,15.29-3,18.86-6.3,4.82-4.45,8.62-12,8.62-12s1.93,1.78,7.13,4,18.69,4.52,20.62,3.83,5.15-6,5.4-7.67c1.15-8.08-3.28-20.54-12.91-20.13"/></g></svg>